<svg width="1024" height="1024" viewBox="0 0 1024 1024" fill="none" xmlns="http://www.w3.org/2000/svg">
<path d="M251 538.5L138.5 482L133 487C112.135 522.89 105.327 543.815 98.5 582C92.7922 630.194 105.133 648.264 128 680C152.487 699.851 166.985 707.987 194 718C331.048 749.935 407.403 755.451 543.5 763L561 641L231 588.5L251 538.5Z" fill="white"/>
<path d="M413.5 232L374.5 340L375.45 340.629C411.266 364.323 431.638 377.802 476 373.5L491 314C524.463 319.537 542.261 317.32 569.5 288.5C591.453 254.065 594.758 229.474 594.5 182L537.5 128L429 194.5L404 176C374.724 187.103 370.552 197.259 379 220.5C391.316 232.874 398.054 235.523 413.5 232Z" fill="white"/>
<path d="M709.5 519L655 464L505.5 439.5L367 600.5L644.5 635.5L709.5 519Z" fill="white"/>
<path d="M933 580C911.831 551.893 897.246 538.434 864 520.5L826 550L806.5 655.5C813.542 666.355 819.137 671.8 835.5 679C866.752 688.775 883.987 688.116 914 671C945.644 637.832 948.589 617.792 933 580Z" fill="white"/>
<path d="M766 837.5H624.5L618 877C609.191 923.829 611.217 940.844 618 967L878 965C879.063 921.262 861.943 906.189 817 887L759.5 869.5L766 837.5Z" fill="white"/>
<path d="M487 864.5L503 968L584.5 967.291L580.5 763L648.237 721L662.5 651L576.5 665.5L561 781.5L356 753.5L263.5 781.5C304.215 849.592 308.518 899.156 405.5 922C438.049 900.295 458.148 889.11 487 864.5Z" fill="white"/>
<path d="M132.5 474.5C129.361 479.479 129.609 481.916 134.5 485.5L247.5 544.5L231.5 589C296.083 619.852 334.297 627.643 405 629.5L488 464.5L628 500.627C644.551 488.264 655.822 476.842 659.878 466.291C660.31 465.17 660.1 463.898 659.434 462.898C601.294 375.676 564.534 341.472 490.017 325.428C488.922 325.192 487.824 325.949 487.6 327.048C474.651 390.77 428.111 380.271 385.603 311.973C385.214 311.347 384.654 310.822 383.993 310.498C319.245 278.709 213.687 325.753 132.5 474.5Z" fill="#FC5A4C"/>
<path d="M675.5 297C679.807 271.209 683.85 260.269 694 247C704.276 248.231 711.571 255.876 727 280.5L769 289C784.593 275.211 794.812 269.096 817 262.5C825.106 264.994 824.402 282.695 820.5 322.5C826.371 358.347 819.479 371.744 807.415 395.194L807 396C841.417 452.518 868.122 498.649 875 524L905.5 548C901.256 527.597 896.983 515.717 887 494C870.869 466.659 866.7 451.269 865 424C867.478 369.361 901.593 343.188 934 347C966.134 353.037 972.299 383.167 923.5 403.5C911.204 411.399 907.78 418.734 908 437L923.5 496C931.277 526.791 934.801 544.028 931.5 574.5C906.746 549.974 889.636 534.719 877 528.5L880.5 566.5L849.5 562C837.667 566.527 835.653 571.898 837 584.5C816.128 592.971 815.751 600.094 828 615.5C813.87 624.843 812.037 631.203 819 644.5C814.485 651.664 812.979 655.883 813.5 664L826.5 677.5L790.5 674L664.5 564C684.46 538.527 690.589 523.478 691.5 495L673 485.5L685.5 402L664.5 383.5C652.128 365.448 649.897 354.229 653.5 332.5C658.329 316.381 663.384 308.752 675.5 297Z" fill="#FC5A4C"/>
<path fill-rule="evenodd" clip-rule="evenodd" d="M477.5 84.1471C468.598 85.2841 456.419 88.5491 447.688 92.1381C424.989 101.468 404.24 120.686 399.046 137.191L397.884 140.881L391.867 136.992C383.204 131.393 373.193 129.286 362.574 130.826C346.069 133.221 333.708 142.483 324.986 158.993C319.727 168.949 315.164 174.365 309.68 177.163C306.001 179.04 304.606 179.131 289.828 178.461C271.57 177.634 265.849 178.464 256.219 183.337C220.024 201.65 212.148 251.849 240.913 280.881C268.107 308.327 317.136 304.036 351.164 271.232C363.292 259.541 373.877 243.471 377.993 230.5C378.691 228.3 379.428 226.206 379.63 225.848C379.832 225.489 381.46 226.571 383.249 228.252C388.345 233.043 394.52 235.381 402.245 235.445C405.954 235.475 408.992 235.767 408.995 236.094C408.998 236.42 406.799 242.945 404.11 250.594C401.42 258.242 395.758 274.797 391.527 287.382C384.886 307.137 384.028 310.457 385.253 311.682C386.41 312.839 386.862 312.861 387.702 311.8C388.268 311.085 391.784 301.275 395.514 290C399.244 278.725 405.389 260.758 409.171 250.073C413.007 239.233 415.665 230.265 415.186 229.786C414.706 229.306 413.12 229.384 411.598 229.963C407.574 231.492 398.472 231.224 394.218 229.449C389.631 227.536 384.652 222.912 380.87 217.054C370.905 201.618 388.952 177.141 407.75 180.599C410.652 181.133 413.446 183.188 420.102 189.681L428.705 198.073L444.602 195.456C453.346 194.016 463.845 191.725 467.934 190.365C498.65 180.143 522.231 160.396 533.74 135.257C535.994 130.334 536.479 129.824 537.418 131.388C550.48 153.144 570.355 172.925 587.019 180.754C592.702 183.424 592.847 183.592 593.23 187.994C593.445 190.472 593.274 198.434 592.849 205.686C591.942 221.14 585.587 251.941 580.82 263.975C570.569 289.859 551.285 308.423 529.25 313.621C521.343 315.486 507.98 314.991 498.5 312.481C489.206 310.021 475.342 302.718 466.14 295.436C460.444 290.929 457.454 289.146 456.757 289.843C456.195 290.405 455.993 291.539 456.309 292.363C457.469 295.385 470.449 304.966 479.084 309.173C489.292 314.146 488.856 312.423 483.922 328.307C481.096 337.405 480.792 339.253 481.999 339.999C483.967 341.216 485.726 339.546 486.548 335.681C487.461 331.393 492.094 317.693 492.959 316.724C493.34 316.297 496.768 316.684 500.576 317.584C509.634 319.723 523.74 319.752 532 317.648C544.358 314.5 552.519 309.548 563.5 298.532C574.654 287.342 580.082 278.846 585.797 263.633C594.937 239.299 600.211 197.158 597.036 173.832C589.19 116.18 536.457 76.6161 477.5 84.1471ZM396.008 194.792C394.046 196.381 393.969 196.73 395.333 197.862C396.521 198.847 397.365 198.875 399.029 197.984C402.113 196.334 405.852 197.561 406.58 200.462C406.916 201.8 406.655 204.517 406 206.5C405.345 208.483 405.089 211.22 405.431 212.582C406.141 215.411 411.904 218.634 414.483 217.645C416.887 216.722 415.919 213.691 412.995 212.987C410.568 212.403 410.509 212.18 410.845 204.841C411.176 197.627 411.071 197.201 408.461 195.148C405.071 192.481 399.073 192.31 396.008 194.792ZM501.174 207.314C496.937 211.825 499.427 221 504.889 221C510.364 221 514.28 211.177 510.48 206.978C508.072 204.318 503.846 204.471 501.174 207.314ZM557.315 212.016C552.317 214.009 551.304 222.521 555.657 225.945C560.342 229.63 566 225.875 566 219.08C566 213.191 562.174 210.079 557.315 212.016ZM538.38 237.452C537.594 239.5 538.767 241 541.155 241C546.168 241 552.736 248.933 551.57 253.579C550.815 256.587 547.959 258.101 541.571 258.881C538.005 259.316 536.5 259.945 536.5 261C536.5 262.089 537.855 262.586 541.447 262.813C547.987 263.226 553.406 260.772 555.447 256.471C557.413 252.328 557.378 251.429 555.056 246.315C552.15 239.914 539.928 233.418 538.38 237.452ZM690.216 246.27C686.056 250.699 677.311 273.858 673.893 289.5C672.781 294.589 671.574 296.668 665.946 303.19C658.442 311.887 652.799 321.89 650.488 330.592C648.654 337.496 648.447 352.798 650.095 359.73C653.503 374.076 664.803 389.863 677.573 398.122C681.108 400.408 684 402.851 684 403.551C684 404.25 682.908 409.475 681.574 415.161C679.072 425.823 674.018 453.223 671.872 467.75C671.202 472.288 670.282 476 669.827 476C669.372 476 669 475.613 669 475.141C669 474.668 667.15 472.18 664.889 469.611C661.609 465.885 660.496 465.173 659.389 466.092C657.437 467.712 657.658 469.383 660.116 471.595C663.155 474.33 667.778 481.269 668.513 484.198C669.14 486.694 669.114 486.704 660.321 487.367C655.469 487.733 649.409 487.745 646.853 487.394C644.297 487.043 635.409 487.298 627.1 487.959C608.131 489.47 607.306 489.158 598.072 477C580.186 453.448 560.335 441.102 535.312 437.968C505.764 434.267 475.884 447.788 456.402 473.674C453.277 477.826 446.949 487.491 442.34 495.151C433.52 509.809 415.078 544.469 413.139 550.03C409.553 560.317 415.302 572.523 428.882 583.455C442.502 594.42 456.532 599.156 468.983 596.991C482.278 594.68 492.231 587.899 500.024 575.842C509.022 561.921 511.404 549.119 511.163 516C511.069 503.075 510.881 490.485 510.746 488.022C510.554 484.518 510.862 483.472 512.165 483.215C514.377 482.778 514.703 484.188 515.974 499.684C517.206 514.717 515.877 544.394 513.514 554.591C509.981 569.835 502.07 584.424 493.548 591.407C487.591 596.288 477.726 600.796 470.035 602.151C458.688 604.149 444.742 600.595 432.96 592.701L426.552 588.407L421.213 596.954C418.277 601.654 413.54 610.377 410.687 616.338L405.5 627.175L392.5 626.55C342.707 624.154 309.723 617.94 272.175 603.883C258.688 598.834 234 587.657 234 586.6C234 586.301 237.18 577.95 241.066 568.041L248.131 550.026L252.142 552.072C254.347 553.198 257.341 553.979 258.794 553.809C261.817 553.455 259.319 557.516 293.385 497.574C313.803 461.646 315.922 457.493 314.538 456.109C313.188 454.76 312.829 454.751 311.604 456.036C310.036 457.681 299.039 476.762 275.026 519.5C266.064 535.45 258.549 548.706 258.325 548.958C258.101 549.21 255.27 547.961 252.034 546.182C248.798 544.403 245.895 543.36 245.584 543.865C245.272 544.369 241.591 553.494 237.405 564.141C233.218 574.788 229.589 583.713 229.34 583.973C229.09 584.234 226.059 582.921 222.602 581.055C216.519 577.772 212.299 577.398 213.242 580.225C213.877 582.13 238.98 595.33 254.5 601.92C285.91 615.256 316.883 623.653 350.5 627.945C368.646 630.261 386.834 631.176 430.5 631.966C471.861 632.715 477.316 633.006 484.596 634.848C508.009 640.772 522.734 648.546 534.633 661.267C541.871 669.005 545.206 675.441 545.822 682.862C546.344 689.167 544.3 694.087 540.423 695.853C538.2 696.866 537.743 696.512 533.833 690.754C523.146 675.017 508.224 665.768 483.288 659.427C472.734 656.743 457.921 654.874 456.617 656.061C454.945 657.585 456.892 660 459.792 660C471.843 660 497.668 667.39 509.316 674.171C530.833 686.698 541.989 710.1 530.894 719.436C526.049 723.513 523.572 722.861 516.545 715.659C501.318 700.052 479.825 690.317 453.5 687.104C440.156 685.475 438 685.6 438 688C438 689.1 438.652 690 439.449 690C443.948 690 464.655 693.267 471.5 695.057C488.165 699.415 506.53 710.404 514.952 721.058C521.271 729.053 521.36 735.943 515.202 740.5C511.228 743.441 501.64 743.039 492 739.526C469.32 731.262 464.52 729.845 455.952 728.889C445.264 727.695 433.53 728.836 419 732.479C379.067 742.493 347.85 743.609 295.5 736.893C260.286 732.375 219.997 723.761 197.249 715.886C183.198 711.022 160.404 700.117 149.953 693.258C126.492 677.862 109.532 655.765 103.096 632.208C94.823 601.924 99.743 564.322 117.256 524C123.21 510.29 131.47 493.598 134.234 489.691C136.165 486.959 136.169 486.843 134.36 485.487C131.88 483.628 131.519 484.134 122.557 502C101.108 544.763 92.475 579.432 95.104 612.257C97.807 646.027 113.646 673.304 142.407 693.718C153.237 701.406 177.214 713.741 190.169 718.289C191.603 718.792 190.95 720.822 185.54 732.688C166.504 774.44 154 821.434 154 851.224C154 855.501 153.608 859 153.128 859C150.55 859 136.443 848.206 129.433 840.871C116.168 826.988 107.949 811.706 102.722 791.207C100.751 783.476 100.511 780.089 100.58 761C100.648 742.314 101.008 737.546 103.329 724.572C104.798 716.361 106 708.395 106 706.869C106 698.708 99.661 695.026 91.489 698.44C76.779 704.586 60.541 734.048 53.948 766.554C51.335 779.437 50.331 802.921 51.916 814.084C56.573 846.879 72.028 873.86 96.838 892.51C111.386 903.445 125.343 909.899 145.5 915.01L156.5 917.799L159.049 924.65C162.969 935.182 166.973 941.813 173.1 947.919C183.286 958.071 197.366 964.554 214.364 966.918C219.586 967.644 261.074 968 340.552 968H458.959L461.16 963.75C464.462 957.373 464.254 948.084 460.645 940.707C457.223 933.713 448.518 925.702 441.545 923.129C438.724 922.088 429.446 920.517 420.5 919.565C391.608 916.49 390.81 916.031 392.253 903.344C393.667 890.918 392.526 865.925 390.104 856.268C384.887 835.472 376.813 820.51 364.003 807.902C356.634 800.65 353.642 798.505 344.884 794.198C330.441 787.096 316.292 784 298.276 784C291.846 784 291 783.783 291 782.138C291 779.577 298.652 778.759 310.781 780.023C348.168 783.919 371.139 799.766 386.509 832.266C397.111 854.684 399.398 871.922 396.677 908.911C396.463 911.827 398.883 912.673 410.166 913.626C417.805 914.271 417.858 914.259 425.666 909.994C436.823 903.899 451.929 893.456 463.213 884.036C468.555 879.577 473.177 875.522 473.484 875.025C473.791 874.529 474.145 853.642 474.271 828.611C474.5 783.095 474.777 779.508 477.913 781.446C478.666 781.911 479.004 794.319 479.013 821.809C479.033 884.115 481.525 936.989 485.068 950.303C488.092 961.664 492.912 965.396 506.583 966.962C519.12 968.398 570.675 968.334 571.573 966.881C571.954 966.266 572.489 961.821 572.764 957.004C573.148 950.272 572.847 946.921 571.462 942.517C569.141 935.138 561.941 927.097 554.314 923.365C545.682 919.142 545.978 920.867 544.759 867.557C544.179 842.226 544.043 815.313 544.455 807.75C545.141 795.177 545.367 794 547.102 794C548.93 794 549.001 795.323 549.036 829.75C549.074 867.299 550.378 912.309 551.512 915.205C551.879 916.143 554.65 918.305 557.67 920.009C565.146 924.228 571.632 930.967 574.797 937.804C577.016 942.597 577.439 944.926 577.467 952.5C577.485 957.45 577.174 962.962 576.775 964.75L576.05 968H726.07H876.091L878.668 965.423C881.153 962.938 881.22 962.554 880.557 954.673C879.085 937.175 875.539 926.369 867.983 916.362C857.934 903.051 840.292 893.541 781 869.473C771.925 865.789 764.333 862.621 764.128 862.433C763.581 861.928 766.118 848.788 767.148 846.788C767.827 845.47 769.306 845.091 773.577 845.142C776.629 845.179 779.322 845.011 779.564 844.77C780.534 843.8 788.264 780.487 791.44 747.5C793.638 724.672 795.984 692.578 795.993 685.219C795.998 680.539 796.386 678.789 797.513 678.357C798.344 678.038 806.415 678.299 815.447 678.937C828.373 679.85 833.146 680.598 837.869 682.449C849.325 686.938 856.855 688.356 869 688.312C882.748 688.263 891.926 686.095 903.63 680.136C919.09 672.262 928.616 662.527 936.539 646.5C946.991 625.359 947.484 605.545 938.06 585.401C934.618 578.042 934.345 576.854 935.076 572.401C936.371 564.512 936.117 549.385 934.462 535.97C932.445 519.612 928.256 501.478 920.262 474.5C910.82 442.634 910.036 439.301 910.017 430.946C909.985 416.567 917.001 407.996 936.663 398.399C955.199 389.352 961.685 381.102 960.829 367.66C959.88 352.746 946.948 343.55 927 343.605C911.959 343.646 899.821 349.161 887.503 361.549C876.046 373.071 868.543 386.687 864.307 403.647C861.947 413.096 861.936 436.86 864.287 446.264C867.079 457.433 872.656 471.194 883.194 492.914C888.687 504.236 894.553 516.875 896.229 521C899.509 529.073 903.203 541.13 902.586 541.748C902.378 541.956 898.647 539.285 894.295 535.813C889.944 532.341 884.384 528.116 881.942 526.424C878.116 523.774 877.26 522.505 875.767 517.275C871.206 501.293 860 480.1 827.403 425.811C817.831 409.869 810 396.405 810 395.89C810 395.375 812 391.477 814.444 387.227C823.815 370.931 827.051 352.101 823.933 332.005C823.106 326.678 823.219 321.576 824.433 309.386C826.256 291.072 826.45 274.16 824.9 268.579C824.301 266.422 822.482 263.328 820.857 261.704C818.296 259.143 817.372 258.821 813.905 259.286C806.286 260.308 789.887 269.324 774.699 280.84L767.898 285.997L761.699 284.448C758.29 283.596 749.544 281.885 742.264 280.647L729.027 278.395L723.912 270.948C707.89 247.617 696.67 239.4 690.216 246.27ZM693.456 249.687C690.228 252.915 682.335 274.337 678.602 290C676.465 298.966 676.033 299.812 670.919 305.052C664.252 311.882 658.906 320.427 655.936 329C653.216 336.85 652.716 351.72 654.91 359.5C658.914 373.7 669.982 388.142 682.449 395.432C686.091 397.562 689.279 399.642 689.533 400.053C689.788 400.465 688.677 406.359 687.064 413.151C683.083 429.919 680.273 445.009 677.035 467L674.311 485.5L680.193 486.101C690.203 487.124 692.685 489.621 693.732 499.717C694.412 506.278 692.855 514.594 688.435 528C684.339 540.422 678.842 550.735 672.64 557.633L668.146 562.632L687.823 562.198C698.645 561.959 707.658 561.622 707.851 561.448C708.195 561.138 718.974 484.61 718.991 482.357C719.003 480.785 722.119 479.719 723.287 480.887C724.033 481.633 718.148 529.674 713.642 559.638C713.339 561.653 713.957 561.847 724.363 562.996C738.088 564.511 744.903 566.255 751.892 570.041C754.889 571.664 757.428 572.882 757.534 572.746C757.64 572.611 759.2 568 761 562.5C765.453 548.89 769.127 540.978 774.468 533.493C786.589 516.507 802.822 510.112 822.953 514.392C830.969 516.097 834.261 518.139 832.245 520.155C831.352 521.048 829.285 520.932 823.509 519.662C808.748 516.419 799.282 518.01 789.206 525.427C778.904 533.011 770.615 546.614 764.934 565.259L761.673 575.96L766.168 579.916C771.55 584.654 779.778 596.308 784.532 605.927C790.474 617.95 794.236 636.51 796.539 665.167L797.155 672.833L805.828 673.45C810.597 673.79 815.747 674.268 817.27 674.513C820.011 674.953 819.998 674.918 816.124 671.229C809.268 664.7 808.604 656.141 814.368 648.584L816.855 645.324L814.27 640.101C811.858 635.227 811.765 634.531 812.881 629.694C814.254 623.747 817.134 619.098 821.094 616.437L823.845 614.588L820.923 611.259C813.426 602.721 819.437 587.23 831.938 582.872C834.873 581.849 835.137 581.437 834.596 578.732C833.199 571.743 837.734 563.777 844.968 560.514C849.01 558.692 849.247 558.7 863.676 561.212L878.289 563.756L877.641 553.628C876.507 535.89 871.503 516.985 863.115 498.756C857.832 487.273 847.285 468.625 823.989 429.581C812.995 411.155 804 395.77 804 395.393C804 395.016 805.612 392.278 807.583 389.309C812.457 381.966 816.733 372.274 818.544 364.467C820.278 356.988 820.556 338.987 819.056 331.208C818.297 327.27 818.434 322.154 819.592 311.208C821.9 289.392 821.904 272.466 819.602 267.75C818.097 264.665 817.244 264 814.793 264C809.347 264 790.579 274.641 774.864 286.639L769.228 290.942L758.364 288.542C752.389 287.222 742.685 285.373 736.8 284.433L726.1 282.723L722.404 277.112C715.563 266.724 705.941 255.047 701.31 251.511C696.031 247.48 695.732 247.411 693.456 249.687ZM498.009 256.25C498.023 259.579 503.484 268.504 507.277 271.397C513.468 276.12 521.928 279.323 528.45 279.415C533.117 279.481 534.5 279.167 534.5 278.045C534.5 277.057 532.428 276.171 528.04 275.283C524.487 274.564 519.641 273.036 517.27 271.889C511.647 269.167 504.458 261.917 502.999 257.498C501.637 253.37 497.994 252.459 498.009 256.25ZM678.378 326.437C675.155 327.84 672 331.459 672 333.754C672 336.377 674.807 336.039 677.79 333.056C679.471 331.375 681.906 330 683.201 330C686.274 330 689.892 332.585 691.038 335.601C692.295 338.905 696 338.887 696 335.577C696 332.11 691.493 327.231 687.186 326.035C682.582 324.756 682.2 324.774 678.378 326.437ZM731.003 335.752C727.44 337.533 726.014 340.414 727.808 342.208C728.47 342.87 729.824 342.451 731.838 340.962C737.143 337.04 745.741 339.607 748.118 345.823C749.442 349.287 752.561 348.269 752.288 344.461C752.024 340.771 747.493 336.508 742.303 335.067C737.049 333.608 735.048 333.729 731.003 335.752ZM916 349.539C899.782 354.071 886.237 366.251 876.541 385.026C869.201 399.237 867.496 406.797 867.524 425C867.559 447.353 869.355 453.126 888.995 494C900.643 518.242 905.594 530.875 908 542.486C909.163 548.102 909.851 549.113 919.12 558.821C924.554 564.512 929 569.581 929 570.084C929 570.588 929.507 571 930.126 571C931.763 571 930.634 538.79 928.602 527.5C926.126 513.747 919.608 488.248 913.055 466.68C905.789 442.766 904.597 436.877 905.23 428.023C906.291 413.195 913.295 404.99 933.785 394.572C948.146 387.269 953.658 382.422 955.824 375.193C957.427 369.842 957.277 367.194 955.104 362.5C951.068 353.783 942.384 348.978 929.582 348.38C924.285 348.133 919.604 348.532 916 349.539ZM694.494 350.685C694.91 351.683 695.565 354.075 695.95 356C696.335 357.925 697.179 360.483 697.825 361.684C699.253 364.339 699.349 369.953 698.025 373.435C696.765 376.747 693.556 376.779 691.408 373.5C689.489 370.571 686 370.122 686 372.804C686 373.796 687.542 376.102 689.426 377.928C692.292 380.706 693.395 381.164 696.176 380.729C698.004 380.443 701.374 380.695 703.663 381.289C706.768 382.094 708.87 382.056 711.93 381.139C716.854 379.664 723 374.532 723 371.896C723 369.326 719.814 369.443 717.407 372.102C713.225 376.724 705.527 378.545 703.008 375.509C700.256 372.194 705.68 356 709.542 356C711.778 356 711.273 353.217 708.75 351.635C707.513 350.86 703.628 349.92 700.118 349.548C694.209 348.921 693.792 349.005 694.494 350.685ZM569.174 493.314C564.691 498.087 568.16 507 574.5 507C578.1 507 582 502.839 582 499C582 492.232 573.663 488.536 569.174 493.314ZM664.329 499.5C664.912 501.293 670.743 504.672 678.992 507.997C683.439 509.789 687.241 511.086 687.441 510.878C687.938 510.362 688.244 506.25 688.111 501.884L688 498.268L676.002 498.384C668.503 498.457 664.126 498.875 664.329 499.5ZM880.594 537.75C881.299 541.462 882.189 549.101 882.573 554.725C883.129 562.888 883.595 565.044 884.885 565.411C885.773 565.665 890.491 566.679 895.37 567.666C900.432 568.69 904.46 570.034 904.752 570.797C905.869 573.706 903.298 573.976 893.951 571.932C877.734 568.386 853.644 564.008 850.327 564.004C846.135 563.999 841.351 568.095 839.903 572.93C838.962 576.072 839.06 577.324 840.484 580.325L842.198 583.937L870.178 593.094C896.513 601.712 900.826 603.679 898.383 605.957C897.897 606.41 884 602.332 867.5 596.895C851 591.458 836.555 587.007 835.4 587.005C831.669 586.996 825.366 592.475 823.506 597.344C822.074 601.094 821.987 602.432 822.981 605.441C824.522 610.111 825.806 610.738 857.623 622.377C871.856 627.583 884.288 632.151 885.25 632.528C887.154 633.274 887.589 635.518 886.018 636.489C885.478 636.823 873.285 632.799 858.924 627.548C844.562 622.297 831.445 618 829.774 618C825.581 618 818.44 625.139 817.472 630.299C816.622 634.83 818.354 639.53 821.675 641.707C822.978 642.56 835.396 647.653 849.272 653.024C873.016 662.215 877.245 664.494 874.129 666.42C873.335 666.911 857.91 661.242 825.851 648.676C820.101 646.422 814.014 654.623 815.99 661.962C817.235 666.586 820.298 669.185 830.5 674.273C848.864 683.431 868.51 686.265 885.02 682.139C899.226 678.589 909.146 673.025 919 663.079C932.606 649.347 940 632.166 940 614.282C940 593.05 931.454 577.373 906.863 553.496C896.108 543.054 881.705 531.039 879.907 531.01C879.58 531.004 879.89 534.038 880.594 537.75ZM651 572.166C642.242 576.668 624.571 582.057 610.446 584.533C600.082 586.35 575.628 587.096 570.797 585.743C568.322 585.049 568.042 585.261 567.491 588.243C567.16 590.034 567.027 594.943 567.195 599.152L567.5 606.804L573.703 603.985C577.114 602.435 583.31 598.879 587.472 596.083C593.51 592.027 595.868 591 599.144 591C605.097 591 627.084 586.368 637.203 582.982C650.157 578.647 662 572.442 662 569.989C662 567.201 659.817 567.633 651 572.166ZM642.637 693.383C637.887 712.294 634 728.237 634 728.812C634 729.579 601.696 750.459 588.445 758.256C587.724 758.681 586.841 746.016 585.653 718.196C584.697 695.821 583.503 677.103 583 676.6C582.446 676.046 581.493 676.176 580.588 676.927C579.455 677.867 579.199 679.668 579.537 684.335C579.782 687.726 580.449 704 581.019 720.5C581.589 737 582.492 754.1 583.026 758.5C583.56 762.9 584.682 786.975 585.519 812C588.011 886.45 589.644 913.177 591.821 915.1C592.195 915.429 594.475 916.463 596.889 917.397C611.617 923.095 622 939.307 622 956.605V963H749C869.237 963 876.007 962.907 876.129 961.25C876.851 951.464 873.881 936.236 869.523 927.38C863.244 914.62 849.316 903.817 825.159 892.97L814.5 888.183L810.5 890.341C808.3 891.529 803.325 895.65 799.444 899.5C791.823 907.061 784.697 919.269 781.547 930.16C780.647 933.273 779.368 936.027 778.705 936.28C778.042 936.532 742.579 936.825 699.897 936.931L622.294 937.123L620.97 933.928C620.242 932.17 617.862 928.475 615.682 925.717L611.717 920.701L612.363 910.065C614.616 872.975 632.489 749.189 638.651 728C642.561 714.554 655 663.787 655 661.274C655 659.723 654.408 659 653.137 659C651.524 659 650.118 663.602 642.637 693.383ZM624.041 847.393C623.034 850.04 620.998 869.156 621.614 870.172C622.466 871.577 634.967 875.054 646.5 877.094C661.446 879.737 692.462 880.792 705.243 879.091C723.236 876.696 740.177 870.864 752.735 862.74C759.458 858.391 759.85 857.925 760.899 853.036C761.504 850.212 762 847.24 762 846.432C762 845.153 753.115 844.97 693.46 845.021L624.92 845.079L624.041 847.393Z" fill="#1A126E"/>
</svg>
