<svg width="1024" height="1400" viewBox="0 0 1024 1400" fill="none" xmlns="http://www.w3.org/2000/svg">
<path d="M457 1230.5C464.445 1239.32 467.522 1244.48 471.5 1254L267 1253.5C268.681 1242.29 270.717 1236.45 283 1229.5L457 1230.5Z" fill="#FF555A"/>
<path d="M377 1227H402.5L519.5 970.5L585.5 828.5L564 825L453.5 1064L377 1227Z" fill="#FF555A"/>
<path d="M749.5 484.5L843 657C780.147 706.578 740.248 725.072 661.5 743L572.5 701L524.5 588L521 627.5L406 631.5C416.389 559.547 432.4 527.693 469.5 478L513.5 465L583 399.5C619.812 375.238 642.277 369.111 684.5 367C726.17 365.057 745.851 368.307 778.5 377L806 326C814.873 322.974 818.703 324.329 823 333.5L780.5 431.5L749.5 484.5Z" fill="#FF555A"/>
<path d="M453 242.5C495.242 234.037 533.709 250.894 558.5 296C493.085 328.115 456.228 345.921 393.5 381C361.44 389.793 342.93 395.081 334.5 388C331.326 382.34 345.852 372.301 381 350.5C375.366 295.725 391.308 258.834 453 242.5Z" fill="#FF555A"/>
<path d="M822.5 1172.5L935.5 1144L967.5 1243C892.11 1268.82 848.466 1281.47 755.5 1284C751.501 1259.55 751.847 1245.78 786.5 1220.5L826 1203.5L822.5 1172.5Z" fill="white"/>
<path d="M691 1281L671 1177.5L553.5 1180.5L550.5 1208C523.079 1218.1 508.556 1224.93 487 1243C475.653 1257.64 471.777 1266.35 472.5 1283.5L691 1281Z" fill="white"/>
<path d="M730 867.5L704.5 875C700.28 843.776 700.413 826.246 706.5 795C720.724 821.771 725.805 837.631 730 867.5Z" fill="white"/>
<path d="M651.5 733.5C680.138 760.836 680.793 773.493 658.5 792C652.942 815.163 647.813 827.43 626.5 845C598.681 850.081 589.883 846.309 586 828L564.5 825C530.531 816.066 512.094 808.975 480.5 792C451.826 772.005 435.53 761.059 418.5 727C404.523 687.437 400.375 666.113 407.5 631.5C451.535 623.127 476.557 621.882 522 628C522.758 659.499 525.376 676.082 539.5 690L651.5 733.5Z" fill="white"/>
<path d="M861 400.5L802 382.5L786 440L723 428.5C699.27 431.763 689.373 438.325 682.5 465C673.207 476.772 671.41 483.546 676.5 496C670.399 502.231 669.07 504.925 670 508.5C671.013 527.475 674.838 536.536 694.5 546.5L702.5 534C756.38 549.785 788.638 555.669 857 550.5C900.24 536.135 921.144 525.866 926 486C924.311 440.139 905.084 424.049 861 400.5Z" fill="white"/>
<path d="M567.5 372.5L592.5 428.5C593.147 474.848 578.944 484.413 539 485L514 465C486.271 474.175 470.955 478.255 447 470C415.506 442.112 405.136 421.404 394.5 379L491 326L564.5 314C589.667 316.512 591.299 336.554 590.5 346C589.887 353.245 581.923 369.829 567.5 372.5Z" fill="white"/>
<path d="M822.5 1172.5L935.5 1144L967.5 1243C892.11 1268.82 848.466 1281.47 755.5 1284C751.501 1259.55 751.847 1245.78 786.5 1220.5L826 1203.5L822.5 1172.5Z" stroke="black"/>
<path d="M691 1281L671 1177.5L553.5 1180.5L550.5 1208C523.079 1218.1 508.556 1224.93 487 1243C475.653 1257.64 471.777 1266.35 472.5 1283.5L691 1281Z" stroke="black"/>
<path d="M730 867.5L704.5 875C700.28 843.776 700.413 826.246 706.5 795C720.724 821.771 725.805 837.631 730 867.5Z" stroke="black"/>
<path d="M651.5 733.5C680.138 760.836 680.793 773.493 658.5 792C652.942 815.163 647.813 827.43 626.5 845C598.681 850.081 589.883 846.309 586 828L564.5 825C530.531 816.066 512.094 808.975 480.5 792C451.826 772.005 435.53 761.059 418.5 727C404.523 687.437 400.375 666.113 407.5 631.5C451.535 623.127 476.557 621.882 522 628C522.758 659.499 525.376 676.082 539.5 690L651.5 733.5Z" stroke="black"/>
<path d="M861 400.5L802 382.5L786 440L723 428.5C699.27 431.763 689.373 438.325 682.5 465C673.207 476.772 671.41 483.546 676.5 496C670.399 502.231 669.07 504.925 670 508.5C671.013 527.475 674.838 536.536 694.5 546.5L702.5 534C756.38 549.785 788.638 555.669 857 550.5C900.24 536.135 921.144 525.866 926 486C924.311 440.139 905.084 424.049 861 400.5Z" stroke="black"/>
<path d="M567.5 372.5L592.5 428.5C593.147 474.848 578.944 484.413 539 485L514 465C486.271 474.175 470.955 478.255 447 470C415.506 442.112 405.136 421.404 394.5 379L491 326L564.5 314C589.667 316.512 591.299 336.554 590.5 346C589.887 353.245 581.923 369.829 567.5 372.5Z" stroke="black"/>
<path fill-rule="evenodd" clip-rule="evenodd" d="M485 238.174C493.551 239.393 507.888 244.235 516 248.645C536.08 259.559 553.089 278.191 564.37 301.63C568 309.172 568.617 309.877 574.329 313.018C581.924 317.193 587.873 323.066 591.052 329.526C593.099 333.686 593.5 335.973 593.5 343.5C593.5 351.607 593.206 353.031 590.534 357.855C587.153 363.96 580.366 370.377 575.386 372.177C573.524 372.851 572 373.77 572 374.219C572 374.669 574.257 379.533 577.015 385.03L582.03 395.023L587.265 391.924C597.905 385.625 615.642 377.677 628.5 373.446C652.085 365.685 670.192 362.889 697 362.868C720.694 362.849 739.075 365.11 764.311 371.147C771.357 372.832 777.295 374.038 777.507 373.826C777.719 373.614 783.271 362.429 789.845 348.97C802.637 322.781 803.984 321 811.003 321C815.183 321 820.533 323.594 823.125 326.877C826.892 331.647 825.476 337.087 814.669 359.371C809.368 370.3 805.244 379.586 805.505 380.008C805.765 380.429 807.541 381.066 809.451 381.425C816.23 382.697 844.386 391.12 853.077 394.476C900.608 412.833 926.91 442.235 928.689 479C929.332 492.294 927.483 501.568 921.957 512.778C907.998 541.091 871.396 555 810.85 555H790.14L803.723 579.75C811.194 593.362 823.777 616.137 831.686 630.36C840.238 645.74 845.85 656.884 845.534 657.86C845.242 658.762 843.462 660.547 841.578 661.827L838.152 664.153L840.907 670.327C846.806 683.544 854.494 706.579 860.323 728.5C870.288 765.97 875.317 791.99 883.012 845.898C890.137 895.804 893.534 913.281 908.592 977.5C925.088 1047.85 934.94 1086.88 945.664 1124.38C950.649 1141.81 950.695 1141.37 943.776 1142.54C941.705 1142.89 939.797 1143.52 939.536 1143.94C939.275 1144.37 943.768 1158.52 949.522 1175.4C963.002 1214.94 971.296 1241.79 970.596 1243.61C969.833 1245.6 963.436 1248.25 943 1255.04C891.064 1272.29 827.225 1283.96 775.471 1285.67C758.446 1286.23 756.264 1286.12 754.758 1284.62C750.665 1280.52 749.706 1265.34 752.895 1255.09C755.463 1246.84 759.608 1240.69 768.239 1232.32C779.361 1221.54 794.179 1212.71 814.246 1204.9C822.016 1201.88 822.991 1201.22 822.977 1199C822.961 1196.53 821.574 1185.63 820.45 1179.14L819.868 1175.78L812.569 1176.46C806.068 1177.07 805.19 1176.95 804.544 1175.32C773.956 1098.5 751.662 1031.57 736.611 971.381C726.734 931.883 717.01 884.71 717.002 876.25C716.997 870.583 714.646 875.346 709.599 891.25C688.3 958.37 682.124 989.497 678.896 1046C677.062 1078.12 678.97 1144.5 682.596 1174.72L683.223 1179.94L679.112 1180.6C676.577 1181 675 1181.79 675 1182.65C675 1186.26 690.098 1268.11 692.389 1276.93C693.165 1279.92 693.6 1282.88 693.356 1283.51C692.601 1285.48 253.717 1286.97 252.504 1285.01C251.597 1283.54 270.611 1235.04 273.155 1232.34C274.353 1231.06 277.199 1229.11 279.482 1228.01C283.451 1226.09 285.608 1226 329.156 1226H374.681L381.985 1210.25C390.502 1191.89 433.376 1100 474.725 1011.5C520.417 913.701 559.853 828.625 560.191 827.127C560.409 826.158 557.812 825.083 551.381 823.477C537.026 819.894 525.509 816.187 512 810.804C457.422 789.052 425.093 757.17 409.573 709.793C404.868 695.428 403.001 685.071 402.044 668C400.277 636.51 404.871 608.391 418.465 567.5C429.724 533.632 441.044 510.703 457.536 488.361L464.816 478.5L458.442 476.869C443.223 472.974 431.225 463.329 420.042 446C413.529 435.907 402.062 411.154 394.895 391.715C393.239 387.225 391.743 383.41 391.569 383.236C391.395 383.062 387.934 384.235 383.877 385.841C372.495 390.348 359.796 393.169 350.135 393.337C338.996 393.531 334.399 392.539 332.417 389.514C330.983 387.325 330.998 386.805 332.598 383.434C334.847 378.694 344.892 370.721 362.069 360.04C369.456 355.447 376.086 351.157 376.802 350.507C377.832 349.571 377.907 347.036 377.159 338.332C375.547 319.574 377.924 305.068 385.069 290.064C402.622 253.204 443.078 232.197 485 238.174ZM483.287 243.091C504.233 246.155 528.138 259.602 541.882 276.049C546.435 281.499 554.967 293.852 555.348 295.548C555.432 295.919 553.925 296.821 552 297.554C520.553 309.512 491.008 322.87 471 334.175C464.675 337.749 452.075 344.879 443 350.019C423.939 360.816 392.66 376.567 381.392 381.043C368.022 386.354 355.4 388.647 342.219 388.159C335.868 387.923 335.554 385.624 341.183 380.571C347.225 375.146 385.435 351.616 390.5 350.201C392.7 349.586 403.95 346.574 415.5 343.506C453.674 333.369 460.716 330.772 458.212 327.756C457.162 326.491 455.506 326.748 445.832 329.681C439.689 331.544 423.152 336.13 409.082 339.874C384.088 346.525 383.485 346.633 382.85 344.591C382.492 343.441 382.158 336.65 382.107 329.5C381.931 304.914 388.675 287.497 404.897 270.638C425.442 249.288 454.897 238.937 483.287 243.091ZM574 319.592C582.224 323.149 587.966 331.711 588.76 341.602C589.171 346.719 588.833 348.685 586.767 353.198C585.398 356.188 582.643 360.222 580.644 362.163C576.761 365.934 569.008 369 563.353 369C560.728 369 559.738 369.521 559.085 371.25C557.99 374.148 558.549 375 561.546 375C564.699 375 566.361 377.683 578.303 402.045C589.427 424.74 591 429.508 591 440.525C591 458.382 581.782 472.686 565.41 480.235C561.399 482.084 558.756 482.499 550.979 482.499C542.161 482.5 540.945 482.248 534.512 479.08C527.529 475.643 518 467.326 518 464.669C518 463.885 520.505 461.311 523.566 458.949C532.977 451.688 541.426 441.734 545.98 432.54C548.276 427.906 550.007 423.076 549.827 421.807C549.167 417.152 546.518 419.548 541.826 429.045C535.933 440.973 527.966 449.888 516.118 457.813C496.692 470.807 475.366 475.85 458.46 471.448C442.286 467.236 428.427 452.913 416.16 427.733C410.044 415.177 397 383.789 397 381.626C397 380.58 402.987 377.056 414.75 371.18C424.513 366.303 438.35 358.937 445.5 354.811C452.65 350.684 462.925 344.751 468.333 341.626C473.741 338.502 480.823 334.604 484.07 332.965L489.973 329.985L496.237 334.636C507.662 343.122 521.396 347.944 534.25 347.983L540 348V342.467C540 332.491 547.646 321.921 556.858 319.161C562.149 317.575 569.781 317.767 574 319.592ZM816 327.752C821.791 330.645 821.354 332.869 810.434 356.021C805.122 367.285 794.939 389.325 787.804 405C780.669 420.675 774.664 433.668 774.46 433.873C774.255 434.078 770.039 433.245 765.09 432.022L756.091 429.799L766.184 409.649C771.735 398.567 782.75 376 790.663 359.5C798.575 343 805.988 328.712 807.135 327.75C809.758 325.55 811.593 325.55 816 327.752ZM572.181 331.536C574.955 333.042 576.595 336.228 575.506 337.991C574.525 339.578 572.597 339.178 570.732 337C566.361 331.895 557 336.483 557 343.73C557 348.444 558.86 351.231 563.465 353.417C567.427 355.297 567.867 356.466 565.157 357.916C562.574 359.298 557.139 356.396 554.27 352.102C549.794 345.402 552.128 335.054 558.906 331.549C562.632 329.622 568.646 329.616 572.181 331.536ZM718.5 368.594C720.15 368.825 726.675 369.714 733 370.57C744.546 372.132 771.445 377.615 773.712 378.867C774.555 379.333 771.158 386.988 762.55 404.019C755.744 417.483 749.799 428.427 749.338 428.338C748.877 428.249 745.031 427.461 740.792 426.588C730.292 424.425 717.679 424.533 710.235 426.85C695.456 431.45 681.575 446.297 679.413 459.819C679.044 462.127 677.512 465.955 676.009 468.325C672.106 474.479 670.857 478.987 670.882 486.832C670.894 490.616 671.026 494.114 671.176 494.606C671.326 495.098 670.172 498.084 668.611 501.242C666.12 506.281 665.829 507.81 666.226 513.742C667.118 527.039 673.18 537.03 684.964 544.622C688.274 546.755 690.986 548.805 690.991 549.177C690.996 549.549 687.443 557.424 683.097 566.677C678.75 575.93 666.427 602.4 655.713 625.5C638.528 662.549 614.922 713.155 614.573 713.693C614.381 713.988 576.698 702.001 575.049 701.12C574.251 700.693 570.831 693.179 567.449 684.422C557.659 659.075 538.56 614.943 530.48 599C528.39 594.875 526.139 589.7 525.479 587.5C524.819 585.3 523.654 583.5 522.89 583.5C521.765 583.5 521.405 587.408 521 604C520.518 623.75 520.427 624.493 518.5 624.303C517.4 624.195 512.225 623.539 507 622.846C494.871 621.236 453.69 621.257 440.5 622.88C429.369 624.249 413.517 626.783 410.606 627.657C408.856 628.183 408.765 627.819 409.409 622.863C411.53 606.534 422.235 569.55 431.596 546.21C440.486 524.045 448.685 509.838 464.703 488.844L472.07 479.188L478.285 478.482C485.929 477.614 498.607 473.719 506.137 469.925L511.774 467.085L516.75 472.793C526.749 484.263 542.403 490.338 556.675 488.289C566.732 486.845 575.849 482.315 582.861 475.278C593.106 464.998 597.593 452.676 596.782 437.049C596.391 429.523 595.709 427.004 591.086 416C588.197 409.125 585.612 402.587 585.342 401.471C584.94 399.807 586.193 398.674 592.306 395.177C611.172 384.382 634.941 375.735 657.611 371.418C669.475 369.159 674.707 368.729 693.5 368.474C705.6 368.31 716.85 368.364 718.5 368.594ZM472.772 384.23C477.434 386.477 476.912 393.965 471.949 396.021C469.236 397.145 468.555 397.059 466.186 395.292C461.794 392.015 461.969 386.247 466.523 384.171C469.544 382.795 469.799 382.797 472.772 384.23ZM821 389.552C859.278 400.303 880.039 410.222 897.22 425.965C922.938 449.53 931.026 482.609 917.734 509.867C912.932 519.716 901.955 530.302 891 535.65C873.97 543.963 854.954 548.226 826.971 550.002C791.915 552.227 741.657 544.609 708.5 532.043C693.548 526.377 694.125 526.511 693.35 528.531C692.713 530.19 694.524 532.341 697.347 533.282C698.526 533.675 695.384 543 694.072 543C692.272 543 681.135 534.995 679.286 532.372C675.85 527.499 673.041 521.291 671.933 516.125C669.899 506.639 674.074 499.566 684.5 494.833C690.653 492.04 702.193 491.857 714.86 494.353C725.387 496.427 725.201 496.438 724.82 493.751C724.422 490.953 720.389 489.526 708.354 487.924C698.064 486.555 690.17 487.183 682.88 489.954C679.987 491.053 677.367 491.699 677.06 491.39C675.949 490.273 676.911 480.15 678.485 476.381C682.192 467.51 688.52 464.112 703.166 463.128C708.618 462.762 718.123 462.866 724.289 463.36C741.812 464.764 741.5 464.779 741.5 462.5C741.5 460.08 735.45 458.653 718.5 457.074C706.762 455.98 697.841 456.734 690.073 459.474C687.661 460.325 685.519 460.852 685.312 460.645C684.429 459.762 688.774 450.592 691.912 446.715C701.227 435.205 710.579 430.671 725 430.671C733.062 430.671 739.04 431.684 764.5 437.36C803.621 446.082 806.421 446.667 820 448.969C830.676 450.778 831.59 450.799 832.754 449.263C833.483 448.3 833.636 447.236 833.121 446.721C832.633 446.233 822.948 444.138 811.599 442.065C800.249 439.993 790.701 438.034 790.38 437.713C790.059 437.392 790.484 434.963 791.325 432.315C794.06 423.705 799.924 401.681 801.49 394.139C803.081 386.48 803.649 384.933 804.809 385.099C805.189 385.154 812.475 387.157 821 389.552ZM434 404C436.789 406.789 436.273 410.728 432.779 413.325C430.49 415.026 429.653 415.163 427.514 414.188C426.115 413.551 424.449 411.885 423.812 410.486C422.837 408.347 422.974 407.51 424.675 405.221C427.272 401.727 431.211 401.211 434 404ZM458.016 410.52C459.133 411.866 458.361 412.958 452.491 418.331C446.647 423.681 445.667 425.061 445.667 427.945C445.667 432.014 448.847 435 453.182 435C454.81 435 458.785 433.538 462.017 431.75C466.686 429.167 468.147 428.754 469.133 429.737C470.12 430.721 469.893 431.485 468.021 433.478C461.369 440.558 449.744 442.003 443.966 436.467C436.475 429.29 440.325 419.482 454.109 410.63C456.471 409.114 456.841 409.103 458.016 410.52ZM494.982 413.989C495.886 414.548 496.546 417.214 496.812 421.382C497.146 426.627 496.798 428.785 495.035 432.428C491.558 439.611 481.907 446.142 472.738 447.517C468.799 448.107 467.915 447.942 467.366 446.511C466.567 444.43 468.176 443.315 473.204 442.466C475.263 442.118 479.606 440.115 482.853 438.016C490.036 433.374 492.643 428.081 491.695 420.069C491.069 414.789 492.373 412.377 494.982 413.989ZM711.5 538.754C715.35 540.184 718.613 541.424 718.75 541.51C719.007 541.671 636.345 720.989 635.731 721.602C635.337 721.996 621.306 716.639 620.425 715.758C620.1 715.433 626.576 700.842 634.815 683.334C643.055 665.825 652.908 644.75 656.712 636.5C684.614 575.984 703.398 536.012 703.904 536.078C704.232 536.12 707.65 537.325 711.5 538.754ZM728.827 544.06C732.435 545.506 759.162 550.841 772.453 552.767L784.405 554.5L788.032 561C790.027 564.575 800.349 583.25 810.971 602.5C821.593 621.75 832.695 641.698 835.642 646.829C838.589 651.96 841 656.335 841 656.55C841 657.077 817.379 672.577 808 678.205C769.116 701.537 705.408 728.766 669.194 737.529L661.889 739.297L658.194 735.711C654.956 732.568 644.679 725.726 641.707 724.736C640.386 724.295 723.932 542.977 725.416 543.063C726.012 543.098 727.547 543.547 728.827 544.06ZM529.225 607.633C537.083 622.629 568.717 697.616 567.64 698.693C567.421 698.912 563.089 697.429 558.013 695.398C540.669 688.455 531.803 680.48 528.551 668.896C525.93 659.556 524.692 638.387 525.662 619.5L526.536 602.5L529.225 607.633ZM495 626.583C505.04 627.432 517.605 629.279 519.25 630.147C520.761 630.944 521.005 632.669 521.035 642.785C521.054 649.228 521.682 657.875 522.431 662C526.957 686.948 536.081 694.222 580.823 708.557C642.817 728.419 653.867 734.025 661.827 749.653C664.614 755.126 665.895 763.753 664.885 770.256C664.097 775.338 660.277 785 659.056 785C658.726 785 657.588 783.391 656.529 781.424C653.648 776.074 644.247 767.889 636.74 764.193C627.985 759.883 620.065 757.535 618.743 758.857C616.882 760.718 618.787 762.7 624.109 764.441C636.739 768.572 646.963 775.668 651.542 783.482C654.589 788.681 655.685 796.394 654.072 801.282C653.005 804.514 645.168 813 643.25 813C642.813 813 641.582 811.38 640.516 809.4C635.84 800.718 610.021 788.198 606.913 793.106C605.471 795.384 605.787 795.709 610.621 796.926C622.694 799.966 634.818 807.946 637.653 814.718C641.091 822.931 637.955 832.996 630.313 838.274C617.383 847.204 602.2 846.949 592.483 837.639C588.133 833.47 586.552 830.23 589.402 831.324C590.172 831.62 595.366 832.415 600.942 833.09C611.39 834.357 613.923 833.847 612.722 830.719C612.363 829.782 609.827 829.085 605.218 828.657C596.128 827.812 577.474 824.605 563.024 821.403C513.634 810.458 474.237 791.175 448.493 765.345C419.433 736.189 404.217 693.997 406.382 648.575C406.747 640.917 407.486 634.12 408.024 633.472C409.064 632.218 416.65 630.771 434.5 628.421C445.073 627.029 485.687 625.795 495 626.583ZM711.019 818.75C711.711 825.212 713.261 838.825 714.464 849C716.765 868.456 716.726 871.286 714.168 870.794C713.116 870.591 712.496 869.169 712.295 866.495C712.129 864.298 711.301 856.425 710.454 849C707.636 824.286 706.295 809.513 706.757 808.25C707.008 807.563 707.787 807 708.488 807C709.375 807 710.142 810.559 711.019 818.75ZM570.5 827.516C571.05 827.712 574.079 828.382 577.231 829.004L582.961 830.134L580.095 835.817C576.912 842.128 539.413 922.48 510.474 985C483.369 1043.56 479.702 1051.48 472.644 1066.75C469.148 1074.31 452.223 1110.65 435.031 1147.5C417.84 1184.35 402.739 1216.83 401.474 1219.68L399.175 1224.85L390.085 1225.18C385.086 1225.36 380.996 1225.34 380.998 1225.14C380.999 1224.95 386.692 1212.57 393.65 1197.64C420.171 1140.73 443.029 1091.72 480.693 1011C502.122 965.075 530.173 904.888 543.028 877.25C565.941 827.988 566.911 826.232 570.5 827.516ZM540.976 934.191C540.962 934.911 540.534 937.307 540.023 939.515C536.089 956.541 530.959 994.772 529.022 1021.5C527.705 1039.69 527.713 1085.89 529.038 1103.05C530.989 1128.35 538.443 1181.67 540.49 1184.98C540.835 1185.54 542.891 1186 545.059 1186H549L548.989 1192.75C548.983 1196.46 548.71 1201.12 548.382 1203.1C547.828 1206.46 547.4 1206.82 542.143 1208.48C513.231 1217.57 485.655 1236.23 477.322 1252.35L475.764 1255.36L470.344 1244.78C467.364 1238.96 463.705 1232.97 462.213 1231.46C457.152 1226.35 455.027 1226 429.032 1226C415.814 1226 405 1225.63 405 1225.17C405 1224.71 408.865 1216.05 413.59 1205.92C422.44 1186.94 430.779 1169.01 471.458 1081.5C528.786 958.172 539 936.012 539 934.965C539 934.499 539.45 933.84 540 933.5C540.55 933.16 540.989 933.471 540.976 934.191ZM942.869 1170.88C953.814 1202.86 965 1238.2 965 1240.79C965 1242.32 961.035 1243.95 941 1250.62C889.28 1267.84 815.613 1281 770.885 1281H757.091L756.423 1277.44C756.056 1275.48 755.958 1270.2 756.205 1265.69C756.852 1253.93 759.985 1247.8 770.902 1236.96C780.862 1227.08 790.165 1220.99 806.864 1213.44C826.208 1204.7 824.713 1204.82 849.346 1209.87C860.981 1212.25 870.939 1214.27 871.476 1214.35C873.354 1214.64 873.196 1210.2 871.308 1209.62C867.23 1208.38 831.884 1201 830.018 1201C828.908 1201 828 1200.65 828 1200.22C828 1198.63 825.939 1182.4 825.401 1179.75C824.857 1177.08 824.965 1177 829.321 1177C844.236 1177 878.003 1168.61 931.656 1151.57L935.812 1150.25L942.869 1170.88ZM670 1183.34C670 1184.59 681.577 1247.88 684.452 1262.34C686.404 1272.16 688 1280.37 688 1280.59C688 1280.82 643.922 1281 590.049 1281H492.098L488.373 1274.25C486.324 1270.54 483.345 1265.82 481.753 1263.77L478.858 1260.03L481.654 1254.89C485.215 1248.35 496.181 1237.36 504.997 1231.5C513.366 1225.94 529.507 1218.16 541.257 1214.02L550.014 1210.94L565.539 1218.54C580.504 1225.86 585.5 1227.24 585.5 1224.04C585.5 1223.23 584.375 1222.02 583 1221.33C581.625 1220.65 574.787 1217.33 567.805 1213.96C560.823 1210.59 554.61 1207.23 553.997 1206.5C553.243 1205.59 553.109 1202.37 553.583 1196.53C554.153 1189.51 554.559 1188 555.757 1188.46C558.388 1189.47 602.109 1189.14 616.5 1188C624.2 1187.39 638.261 1186.02 647.747 1184.95C664.579 1183.05 670 1182.65 670 1183.34ZM145.266 1215.09C155 1217.38 165.7 1226.19 170.823 1236.12L174.081 1242.44L184.791 1242.47C194.272 1242.5 196.156 1242.81 201.218 1245.18C209.163 1248.9 216.356 1255.95 220.215 1263.79C222.941 1269.32 223.419 1271.4 223.456 1277.89L223.5 1285.5H136.5H49.5001L49.2021 1283.41C49.0091 1282.07 50.5462 1279.5 53.5302 1276.18C61.5272 1267.28 77.7111 1261 89.1651 1262.34C94.4951 1262.96 95.0001 1262.38 95.0001 1255.63C95.0001 1245.69 99.5341 1234.55 106.699 1226.89C116.625 1216.28 131.281 1211.79 145.266 1215.09ZM453.979 1232.12C457.955 1233.7 460.001 1236.06 463.623 1243.25L467.025 1250H369.013C315.106 1250 271 1249.89 271.001 1249.75C271.004 1248.01 275.688 1237.92 277.329 1236.12C282.129 1230.86 279.696 1231 368.718 1231.06C420.815 1231.1 452.419 1231.49 453.979 1232.12Z" fill="#1A126E"/>
</svg>
