<svg width="1024" height="1499" viewBox="0 0 1024 1499" fill="none" xmlns="http://www.w3.org/2000/svg">
<path d="M738 771V1003L752 1006V840.5C787.287 836.304 799.735 825.317 812 794C781.494 796.679 765.34 800.076 752 837V770C752.135 764.525 753.056 761.464 755.5 756C797.056 730.682 807.589 706.792 802 645.5C755.953 670.977 743.493 696.178 739.5 756C721.397 725.607 709.187 711.696 672.5 709.5C680.471 735.209 691.087 751.125 731.5 760C735.208 763.701 736.811 766.017 738 771Z" fill="#F05E59"/>
<path d="M557.5 355C612.183 362.19 654.499 414.741 630 461.5L611 422.5C580.626 452.188 559.805 462.577 519 448.5C501.351 413.495 458.481 454.437 495.5 481.5C476.052 556.357 444.233 565.712 360 568.5C349.881 519.123 360.866 492.252 401.5 473C421.918 463.336 431.346 454.627 445 434C472.713 377.888 497.708 353.238 557.5 355Z" fill="#F05E59"/>
<path fill-rule="evenodd" clip-rule="evenodd" d="M608.542 423.368C599.252 435.165 583.001 446.377 565.491 450.437C555.999 452.639 536.842 452.449 527.713 450.064L519 448.5V451.5C518.765 454.294 518.652 455.303 517.914 455.303C517.5 455.303 517.952 454.216 517.5 450.064C516.765 443.321 512.394 439.722 507.626 437.042C503.648 434.807 495.727 433.883 496.907 435.792C497.258 436.359 496.854 436.525 495.958 436.182C491.629 434.52 485.5 445.356 485.5 445.356C485.01 445.053 484.115 446.222 483.511 447.953C480.012 457.992 482.641 470.897 493.883 478.483L496.378 481.483V484.747C489.79 505.667 484.144 518.057 477.788 547.303C471.772 574.987 481.417 610.839 501.883 608.983C510.879 608.168 529.354 595.135 534.883 586.983C537.996 582.392 549.914 553.483 549.914 553.483L563 552C563 552 575.367 550.736 582.5 547.259C588.002 544.578 593.693 539.5 598.5 534.5C609.223 523.347 615 507.5 617 498.181V495C618.19 494.082 620.766 487.177 623 478.5C628.713 456.311 629.5 459.5 617.891 437.116C614.16 428.419 611.002 421.167 610.874 421C610.747 420.834 609.697 421.899 608.542 423.368ZM503.383 462.983C504.443 465.518 503.899 466.851 505.145 466.599C507.235 466.176 505.634 464.903 503.383 457.983C502.489 455.233 502.769 453.813 502.383 452.483C500.662 446.545 502.424 460.688 503.383 462.983ZM320.722 735.303C321.273 760.025 322.327 771.601 326.046 793.782C332.522 832.401 346.299 866.196 365.803 891.303C373.733 901.511 395.323 922.62 406.138 930.741C419.234 940.573 438.339 952.046 440.34 951.278C441.172 950.959 441.531 951.019 441.137 951.413C440.025 952.526 445.15 955.269 469.414 966.547C481.789 972.298 496.429 979.137 501.947 981.744L511.981 986.483L515.883 1003.48C524.76 1030.3 533.638 1049.07 541.883 1052.98C545.378 1054.64 551.957 1057.11 554.883 1055.98C556.973 1055.18 563.883 1048.73 563.883 1045.48C563.883 1042.29 558.531 1025.85 555.383 1017.48C552.459 1009.72 551.383 1010.52 553.883 1010.98C555.169 1011.22 554.676 1011.06 557.883 1020.98C564.667 1041.97 565.666 1046.32 568.883 1049.98C577.903 1060.26 593.266 1059.17 595.883 1046.48C597.184 1040.18 594.229 1025.07 589.883 1010.98C589.383 1007.98 587.134 1006.48 589.883 1006.48C592.195 1006.48 596.383 1026.72 596.383 1035.98C596.383 1042.02 598.248 1047.85 600.383 1049.98C603.355 1052.96 612.557 1052.04 616.883 1049.48C620.459 1047.37 624.243 1037.95 625.883 1030.48C627.289 1024.08 625.158 1017.34 620.883 1000.48C618.495 991.066 620.383 994.983 620.383 994.483C621.383 994.483 621.118 993.725 624.383 1009.48C626.462 1019.52 627.285 1024.54 626.883 1028.98C626.382 1034.51 626.516 1038.62 628.883 1040.98C630.708 1042.81 633.839 1043.48 636.383 1043.48C638.365 1043.48 641.191 1043.48 640.883 1042.98C640.574 1042.48 645.919 1040.75 646.883 1040.98C649.634 1041.66 652.191 1036.52 655.383 1031.48C658.539 1026.51 659.41 1018.15 659.383 1011.48C659.345 1002.39 652.633 984.983 650.883 981.483C648.383 976.483 634.242 957.269 629.883 952.983C612.331 935.727 595.521 927.396 550.417 909.133C521.185 897.297 502.016 886.558 485.883 874.483C476.039 867.114 470.777 861.791 462.383 851.983C440.055 825.892 431.009 786.765 427.883 729.983L426.883 709.483L390.991 710.546C373.349 710.756 350.19 710.562 339.528 710.115L320.142 709.303L320.722 735.303ZM292.064 839.359C278.345 845.858 267.754 848.181 251.914 848.166C233.373 848.149 219.292 844.78 202.486 836.339L193.836 831.995L191.591 839.827C186.534 857.467 185.136 875.457 187.5 892.481C188.792 901.785 194.132 919.095 195.458 918.276C195.971 917.959 196.166 918.286 195.891 919.004C194.336 923.056 208.035 944.782 218.883 951.983C234.313 962.225 261.834 969.406 295.383 971.983C317.079 973.65 347.955 973.276 358.383 968.919L361.883 967.483L369.191 935.937L375.435 909.774L369.383 900.983C348.595 876.497 336.889 846.226 328.383 815.483C318.071 824.215 304.303 833.562 292.064 839.359ZM752.383 888.483L763.883 889.483C782.655 889.735 785.883 892.483 812.383 904.983C825.237 912.404 831.475 913.838 836.383 908.483C845.883 896.483 838.43 888.804 822.383 874.983C802.578 857.925 786.545 851.244 762.414 847.346C757.189 846.502 752.796 845.985 752.383 845.983C752.383 845.983 752.207 884.328 752.383 888.483ZM752.383 901.983C765.396 916.408 772.414 929.31 766.133 938.5C764.521 940.858 752.383 946.841 752.383 946.983V952.483C763.25 956.468 809.327 971.389 807.383 966.983C835.354 957.532 805.543 935.195 804.883 937.082C804.883 937.082 797.04 931.774 785.039 925.285C776.318 920.57 779.883 921.483 779.883 921.483C779.883 921.483 787.238 924.044 799.883 932.483C805.11 935.972 817.647 945.798 823.883 944.983C828.679 944.356 835.534 937.006 836.383 932.483C837.944 924.162 830.098 915.585 820.472 910.892C817.415 909.402 811.314 906.099 806.914 903.553C788.383 892.831 778.517 889.905 760.664 889.838H752.383C752.383 894.164 752.383 901.983 752.383 901.983ZM379.383 912.983C379.141 913.71 375.319 929.578 371.4 945.803C361.406 987.174 350.517 1029.83 349.883 1031.48C349.427 1032.67 358.785 1031.48 403.383 1031.48C432.284 1031.48 455.629 1032.07 455.883 1032.48C506.848 1031.48 484.23 1031.68 498.383 1031.48L500.195 1016.01C501.36 1009.57 502.868 1000.84 503.548 996.616C504.719 989.328 503.425 987.479 505.383 988.483C507.248 989.439 489.399 980.885 485.914 979.285C431.006 954.08 410.038 941.696 387.787 921.332C382.48 916.475 379.661 912.147 379.383 912.983ZM233.292 961.707C234.451 962.441 234.32 964.947 232.472 977.441C231.263 985.615 227.35 1012.55 223.777 1037.3C220.204 1062.05 216.853 1085.18 216.33 1088.7C215.808 1092.22 215.525 1095.25 215.703 1095.42C216.087 1095.81 297.853 1106.12 314.414 1107.87C320.739 1108.54 326.199 1109.53 326.548 1110.07C327.201 1111.08 332.231 1091.06 341.817 1049.3C346.861 1027.33 359.796 973.59 360.991 969.639C361.45 968.123 361.096 968.094 357.016 969.322C346.52 972.481 326.634 974.087 305.414 973.489C279.051 972.747 258.768 969.546 240.013 963.167C232.584 960.64 231.099 960.317 233.292 961.707Z" fill="white"/>
<path d="M522.684 781.82C520.085 774.945 517.114 770.074 511.61 764.999L499 756.5C488.048 751.375 480.014 750.389 465.531 750.419C454.086 750.443 451.541 750.774 444.254 753.185C439.702 754.691 436.171 756.238 436.408 756.622C436.645 757.006 435.728 757.387 434.37 757.468C433.012 757.55 430.347 758.153 430 758.5C428.168 760.331 434.48 794.383 440 810C446.953 829.67 452.697 842.291 466 856C479.904 870.33 508.5 890 516 892C518 892 521.027 876.286 521.527 873.293C526.223 845.191 527.433 832.878 527.421 813.32L522.684 781.82Z" fill="#F5F5F4"/>
<path d="M592.411 722.215C579.368 724.242 546.291 728.797 534.781 730.15C528.718 730.863 511.139 734.177 515 748C517.682 757.672 516.166 750.018 519.5 762.5L522 769C527.006 790.418 533.07 805.87 540 820.5C547.855 837.082 570.526 869.178 583.5 880.5C596.355 891.72 616.672 904.706 637.5 913C654.274 919.68 734.103 946.5 738 946.5V941C730.807 937.403 727.86 935.031 720.531 930.389C694.299 913.776 742.843 944.5 750.5 944.5C754.604 944.5 759.911 944.313 762.5 942C765.169 939.615 766.611 934.184 767 929.5C767.404 924.628 765.41 922.96 762.5 917.5C758.846 910.644 747 900.5 747 900.5C745 898 728.734 888.218 726.031 886.902C715.579 881.813 721.5 882.928 721.5 882.928L726.5 885.5C729.679 887.09 738 891.5 738 891.5L738 845.564C736.763 845.319 726.806 844.457 721.031 843.837C694.852 841.025 670.159 831.164 654 819C643.936 811.426 637.878 803.017 630.5 788C623.352 773.449 620.075 761.628 615 737C613.118 727.866 612.219 718.72 612 718.5C611.78 718.281 601.145 720.857 592.411 722.215Z" fill="#F4F4F5"/>
<path d="M519.5 762.5L522 769C521.368 766.889 519.93 764.11 519.5 762.5Z" fill="#F4F4F5"/>
<path fill-rule="evenodd" clip-rule="evenodd" d="M492.444 434.831C477.355 441.891 474.514 463.132 486.937 476C488.897 478.029 491.348 480.149 492.385 480.71C494.176 481.68 493.962 482.746 488.072 502.115C484.662 513.327 481.407 523.993 480.836 525.819C480.04 528.369 479.418 528.969 478.15 528.409C471.69 525.561 458.537 523.87 442.5 523.827C423.419 523.776 415.917 524.751 402.654 529.005C364.646 541.198 322.955 584.534 270.7 666.168C245.346 705.777 177 818.283 177 820.411C177 820.631 180.15 823.146 184 826C187.85 828.854 191 831.59 191 832.08C191 832.569 189.852 836.914 188.449 841.735C181.261 866.429 181.321 890.908 188.622 913C193.068 926.452 198.492 935.536 207.393 944.439C216.242 953.291 220.401 956.105 232.053 961.129C251.762 969.626 275.046 973.951 305.217 974.719C327.656 975.291 343.072 974.168 355.16 971.081C359.197 970.05 362.606 969.303 362.735 969.422C362.865 969.54 360.033 981.532 356.441 996.069C352.85 1010.61 346.084 1039.15 341.405 1059.5C336.726 1079.85 331.571 1101.76 329.949 1108.19C328.327 1114.62 327 1120.02 327 1120.19C327 1120.36 375.138 1120.38 433.973 1120.24L540.946 1119.98L540.395 1116.74C537.631 1100.49 535.703 1095.14 529.468 1086.4C518.017 1070.35 500.117 1059.99 477.199 1056.13L466.732 1054.37L461.974 1042.43L457.215 1030.5L404.004 1030.24C361.61 1030.03 350.891 1029.72 351.278 1028.72C351.545 1028.02 357.989 1001.98 365.598 970.841L379.432 914.228L387.466 921.714C409.509 942.251 428.569 953.754 480 977.555C495.125 984.554 508.049 990.712 508.719 991.237C509.389 991.763 511.121 996.087 512.566 1000.85C524.186 1039.11 537 1057.91 551.5 1057.97C556.567 1058 561.713 1054.91 563.434 1050.82C564.736 1047.72 564.774 1047.71 565.93 1049.87C567.813 1053.39 574.8 1057.85 579.544 1058.56C585.082 1059.39 591.727 1056.42 594.374 1051.94L596.205 1048.84L598.683 1051.17C600.732 1053.1 602.244 1053.5 607.408 1053.5C612.626 1053.5 614.22 1053.06 617.078 1050.86C618.96 1049.41 621.382 1046.49 622.46 1044.36C623.538 1042.24 624.532 1040.33 624.668 1040.13C624.804 1039.92 626.274 1040.89 627.934 1042.29C640.093 1052.52 658.73 1038.57 660.647 1017.8C661.76 1005.74 656.619 987.664 647.802 972.64C637.756 955.521 620.046 939.993 595.873 927.11C585.487 921.575 578.594 918.526 550.109 906.869C526.394 897.164 509.808 888.802 496.102 879.639C484.663 871.992 467.38 856.015 459.932 846.202C447.655 830.024 437.744 803.707 432.553 773.5C430.266 760.192 430.143 760.655 436.75 757.712C455.685 749.277 478.205 749.202 497.434 757.511C506.701 761.515 505.354 762.088 515.618 749.777C525.494 737.933 537.194 719.987 542.518 708.516C547.295 698.223 553.456 679.809 554.539 672.586C554.912 670.099 555.838 667.549 556.597 666.92C562.565 661.967 555.125 691.822 545.739 710.492C544.083 713.787 540.723 719.785 538.274 723.819C535.825 727.854 533.974 731.278 534.161 731.429C534.707 731.87 568.789 727.353 590.355 723.981C601.275 722.273 610.336 721.017 610.489 721.188C610.643 721.36 612.378 729.375 614.344 739C620.485 769.054 626.939 787.522 636.326 801.902C650.771 824.029 676.176 837.884 713.287 843.872C731.648 846.835 738 847.27 738 845.564C738 844.56 736.075 843.976 731.25 843.516C699.207 840.461 669.507 830.321 653.767 817.063C636.776 802.75 626.641 782.101 618.642 745.5C616.719 736.7 614.844 727.411 614.475 724.857L613.805 720.214L620.902 719.016C624.806 718.358 628 717.393 628 716.871C628 716.004 611.924 654.602 604.863 628.5C600.7 613.112 596.566 601.065 593.079 594.156C588.53 585.145 579.006 573.148 568.534 563.237L559.073 554.283L566.286 553.732C583.544 552.413 599.109 541.148 609.604 522.38C614.647 513.363 619.119 500.276 624.478 478.855C628.685 462.038 628.968 460.167 627.684 457.692L626.275 454.976L625.626 459.738C625.269 462.357 623.58 470.35 621.873 477.5C619.54 487.266 618.14 491.172 616.243 493.201C611.353 498.434 604.763 497.722 603.227 491.795C602.139 487.597 600 486.925 600 490.782C600 497.124 607.021 501.463 613.373 499.048C616.152 497.992 616.208 498.036 615.551 500.732C614.453 505.238 608.416 518.714 604.831 524.663C600.895 531.193 588.765 543.059 583.038 545.98C573.588 550.802 559.029 552.262 551 549.195C549.625 548.669 548.159 548.192 547.743 548.133C547.327 548.075 544.627 546.833 541.743 545.373C534.458 541.685 526.795 535.503 522.454 529.811C519.133 525.457 516 523.563 516 525.91C516 527.72 524.144 537.068 529.263 541.133C532.143 543.421 537.008 546.485 540.074 547.943L545.648 550.594L542.453 560.125C532.562 589.626 521.751 601.558 505 601.463C497.231 601.419 492.113 599.082 486.725 593.117C478.974 584.538 475.426 572.814 476.371 558.906C476.99 549.816 478.83 542.815 490.935 503.5C497.339 482.7 497.855 480.404 496.337 479.5C492.406 477.158 486.717 471.366 484.954 467.91C480.811 459.789 481.182 452.088 486.07 444.708C491.437 436.606 500.542 433.929 508.163 438.212C513.106 440.99 516.05 445.685 516.866 452.09C517.67 458.406 519.42 458.511 519.758 452.263C520.071 446.504 517.321 441.157 511.735 436.658C506.849 432.723 498.615 431.943 492.444 434.831ZM500.215 454.219C500.894 460.235 503.948 468 505.636 468C507.389 468 507.353 467.09 505.421 462.465C504.553 460.387 503.534 456.88 503.157 454.672C502.78 452.464 501.85 450.45 501.091 450.197C500.007 449.836 499.819 450.7 500.215 454.219ZM556.505 478.978C554.723 487.09 563.182 494.99 572.046 493.492C576.416 492.754 583.735 486.998 582.613 485.182C582.101 484.354 580.777 484.88 578.191 486.937C573.352 490.788 570.113 491.492 565.708 489.652C561.33 487.822 558.601 483.095 559.516 478.927C560.004 476.706 559.797 476 558.659 476C557.808 476 556.876 477.288 556.505 478.978ZM584.232 501.195C584.451 501.853 585.867 502.722 587.379 503.126C591.369 504.193 593 505.883 593 508.948C593 512.711 588.946 516.251 584.313 516.532C582.26 516.657 580.43 517.209 580.247 517.76C579.713 519.36 584.298 520.033 588.265 518.937C596.127 516.767 598.765 507.505 592.923 502.589C589.745 499.915 583.469 498.908 584.232 501.195ZM544.578 509.874C544.245 510.412 544.876 513.267 545.98 516.217C549.349 525.223 558.147 532 566.468 532C568.941 532 570 531.55 570 530.5C570 529.479 568.962 528.993 566.75 528.978C558.858 528.925 551.11 522.473 548.558 513.83C547.311 509.607 545.72 508.026 544.578 509.874ZM428.833 630.996C428.65 631.544 428.623 649.769 428.773 671.496C429.025 708.15 429.17 711 430.773 711.001C432.384 711.001 432.482 708.376 432.226 671.751C432.075 650.163 431.751 631.938 431.507 631.25C430.976 629.755 429.302 629.596 428.833 630.996ZM316.563 643.897C316.258 644.391 315.564 655.079 315.02 667.647C313.02 713.908 313.03 711.141 314.855 710.791C316.279 710.519 316.598 707.991 317.23 691.988C317.632 681.82 318.308 667.091 318.733 659.258C319.158 651.426 319.354 644.563 319.169 644.008C318.753 642.758 317.306 642.696 316.563 643.897ZM320 727.55C320 747.261 321.325 766.016 324.028 784.572C331.802 837.946 347.74 875.14 375.715 905.194C404.059 935.644 423.455 948.445 481.5 975.013C491.4 979.544 502.425 984.727 506 986.529L512.5 989.807L514.919 998.154C520.695 1018.08 529.109 1037.16 535.926 1045.79C548.103 1061.19 564.934 1056.7 561 1039.1C560.311 1036.02 558.004 1028.44 555.874 1022.26C553.743 1016.08 552 1010.79 552 1010.51C552 1010.23 552.66 1010 553.468 1010C554.482 1010 556.363 1014.55 559.561 1024.75C565.83 1044.74 565.908 1044.92 570.299 1049.7C579.646 1059.86 591.535 1057 594.002 1043.99C595.194 1037.7 593.621 1026.68 589.649 1013.5C587.296 1005.69 587.183 1004 589.017 1004C591.091 1004 597 1028.88 597 1037.61C597 1046.86 600.311 1051 607.712 1051C614.063 1051 618.605 1046.91 622.132 1038C625.749 1028.87 624.755 1017.46 618.41 995.25C617.937 993.596 618.184 993 619.345 993C620.347 993 621.327 994.501 622.031 997.114C625.438 1009.77 627.256 1020.51 627.381 1028.73C627.505 1036.89 627.785 1038.23 629.789 1040.23C631.514 1041.96 633.201 1042.5 636.851 1042.5C649.762 1042.5 659.208 1027.38 657.524 1009.41C656.117 994.396 647.183 974.485 636.164 961.805C619.25 942.34 600.025 930.548 555.581 912.377C515.18 895.859 495.177 884.688 476.448 868.184C454.376 848.733 442.545 827.923 433.977 793.476C428.667 772.127 425.008 741.965 425.003 719.5L425.001 711.5L388.251 711.79C368.038 711.949 344.412 711.724 335.75 711.29L320 710.5V727.55ZM516.39 754.427C514.906 758.294 530.59 804.28 540.119 824C551.467 847.483 567.994 870.165 583.568 883.629C601.082 898.77 625.095 911.126 661 923.474C679.874 929.965 734.664 947 736.666 947C737.4 947 738 946.325 738 945.5C738 944.675 737.419 944 736.708 944C734.969 944 677.522 926.18 662.625 921.02C643.528 914.405 633.38 910.194 618.856 902.859C596.356 891.497 581.411 879.568 567.034 861.5C547.876 837.423 535.927 812.799 523.4 771.581C520.394 761.692 517.736 753.402 517.491 753.158C517.247 752.914 516.751 753.485 516.39 754.427ZM324.928 819.587C323.314 821.532 307.451 832.631 300.171 836.909C271.34 853.853 235.76 854.068 202.809 837.498L194.118 833.128L192.583 837.814C184.541 862.366 183.999 889.956 191.137 911.5C201.234 941.975 221.952 958.598 260.153 966.874C291.929 973.759 334.628 973.978 358.154 967.377L363.89 965.767L370.451 938.899L377.013 912.031L368.9 902.381C354.696 885.488 345.18 869.581 337.13 849.28C333.21 839.393 328 822.435 328 819.562C328 817.553 326.606 817.565 324.928 819.587ZM752.189 846.067C752.491 846.973 755.861 847.838 762.195 848.633C773.345 850.033 790.793 855.597 799.763 860.611C813.676 868.389 832.984 885.097 836.858 892.71C840.057 898.998 839.676 902.353 835.218 907.132C829.853 912.883 826.915 912.719 815.5 906.028C791.669 892.061 784.273 889.516 764.25 888.389C753.254 887.77 752 887.869 752 889.35C752 890.74 753.223 891.003 759.75 891.02C777.648 891.066 788.141 893.97 805 903.544C811.325 907.136 818.767 911.135 821.537 912.431C834.747 918.609 838.986 931.778 830.432 940.064C827.283 943.115 826.303 943.492 821.692 943.424C816.974 943.356 815.724 942.788 808 937.205C798.354 930.233 782.224 921 779.69 921C776.488 921 778.054 922.511 785.267 926.379C794.689 931.431 807.558 939.795 812.252 943.916C817.039 948.119 818.658 953.49 816.612 958.386C814.867 962.563 811.395 964.998 805.652 966.07C800.309 967.069 799.246 966.795 773.25 957.73C755.777 951.637 752 950.614 752 951.977C752 953.121 753.782 954.19 757.75 955.425C760.913 956.409 771.078 959.909 780.34 963.202C802.644 971.134 810.149 971.15 817.057 963.283C820.011 959.918 820.188 959.288 819.816 953.447L819.418 947.207L823.181 946.703C832.354 945.472 838.837 937.15 837.614 928.175C837.264 925.604 835.652 921.364 834.032 918.753L831.087 914.007L833.859 912.573C835.384 911.784 837.839 909.396 839.316 907.266C844.585 899.663 841.957 891.613 830.539 880.378C809.837 860.009 784.815 847.698 759.445 845.399C753.148 844.828 751.817 844.951 752.189 846.067ZM718.606 882.829C718.324 883.285 722.265 885.771 727.365 888.354C748.58 899.097 765.959 917.969 765.99 930.3C766.01 938.144 760.601 944 753.333 944C747.387 944 743.916 942.397 728.341 932.453C713.258 922.824 712 922.19 712 924.224C712 925.647 731.981 938.933 742.116 944.25C752.261 949.572 762.873 947.025 767.121 938.25C771.669 928.856 767.516 917.653 754.636 904.571C745.771 895.566 738.146 890.037 727.857 885.153C720.867 881.835 719.441 881.477 718.606 882.829ZM166.681 985.25C158.192 1011.49 124 1119.47 123.998 1120.05C123.995 1121 166.719 1119.18 170.5 1118.07C186.269 1113.44 193.727 1108.52 202.201 1097.17C205.514 1092.73 212.563 1086.98 216.148 1085.78C216.63 1085.62 219.247 1069.74 221.964 1050.5C224.681 1031.25 228.5 1004.82 230.452 991.763C232.403 978.707 234 967.345 234 966.513C234 965.196 230.071 965 203.617 965H173.233L166.681 985.25ZM694.622 989.765C692.49 995.119 689.959 1001.3 688.999 1003.5C688.038 1005.7 684.667 1014.02 681.506 1022C678.346 1029.97 673.575 1041.87 670.905 1048.44C668.235 1055.01 666.151 1060.47 666.275 1060.57C666.632 1060.86 683.239 1068.11 685.964 1069.16L688.429 1070.11L684.964 1072.77C679.199 1077.2 674.981 1082.2 671.899 1088.25C670.289 1091.41 668.709 1094 668.39 1094C668.07 1094 665.302 1093.27 662.239 1092.38C648.653 1088.43 632.774 1092.85 622.633 1103.41C617.636 1108.61 611.485 1118.23 612.175 1119.77C612.354 1120.17 678.476 1120.27 759.114 1120L905.728 1119.5L904.363 1114C903.612 1110.97 900.98 1104.39 898.513 1099.37C886.859 1075.63 860.638 1059.06 834.656 1059.01C831.628 1059 830.699 1058.57 830.277 1056.95C829.983 1055.83 828.281 1051.86 826.495 1048.13C822.17 1039.11 814.922 1032.07 805.199 1027.45C795.993 1023.08 699.3 979.985 698.767 980.015C698.62 980.023 696.755 984.41 694.622 989.765Z" fill="#19136E"/>
</svg>
